<svg width="29" height="30" viewBox="0 0 29 30" fill="none" xmlns="http://www.w3.org/2000/svg">
<path d="M8.91669 23.5C7.35835 23.5 6.09752 24.775 6.09752 26.3333C6.09752 27.8917 7.35835 29.1667 8.91669 29.1667C10.475 29.1667 11.75 27.8917 11.75 26.3333C11.75 24.775 10.475 23.5 8.91669 23.5ZM0.416687 0.833344V3.66668H3.25002L8.35002 14.4192L6.43752 17.89C6.21085 18.2867 6.08335 18.7542 6.08335 19.25C6.08335 20.8083 7.35835 22.0833 8.91669 22.0833H25.9167V19.25H9.51169C9.31335 19.25 9.15752 19.0942 9.15752 18.8958L9.20002 18.7258L10.475 16.4167H21.0292C22.0917 16.4167 23.0267 15.8358 23.5084 14.9575L28.58 5.76334C28.6934 5.56501 28.75 5.32418 28.75 5.08334C28.75 4.30418 28.1125 3.66668 27.3334 3.66668H6.38085L5.04919 0.833344H0.416687ZM23.0834 23.5C21.525 23.5 20.2642 24.775 20.2642 26.3333C20.2642 27.8917 21.525 29.1667 23.0834 29.1667C24.6417 29.1667 25.9167 27.8917 25.9167 26.3333C25.9167 24.775 24.6417 23.5 23.0834 23.5Z" fill="black"/>
</svg>
